<svg xmlns="http://www.w3.org/2000/svg" width="720" height="1280" viewBox="0 0 720 1280" role="img" aria-labelledby="marketScreenshotTitle">
  <title id="marketScreenshotTitle">Nearby markets screenshot placeholder</title>
  <rect width="720" height="1280" rx="40" fill="#1f8f53" />
  <rect x="36" y="46" width="648" height="90" rx="30" fill="#e8f7ee" />
  <text x="72" y="110" fill="#166b3e" font-family="Arial, sans-serif" font-size="42" font-weight="700">Nearby Markets</text>
  <rect x="36" y="160" width="648" height="156" rx="30" fill="#ffffff" />
  <text x="72" y="228" fill="#172033" font-family="Arial, sans-serif" font-size="34" font-weight="700">Owino Market</text>
  <text x="72" y="276" fill="#5b6475" font-family="Arial, sans-serif" font-size="24">1.2 km away · Open now</text>
  <rect x="72" y="320" width="180" height="40" rx="20" fill="#eaf8f0" />
  <text x="90" y="348" fill="#166b3e" font-family="Arial, sans-serif" font-size="20">Grains</text>

  <rect x="36" y="372" width="648" height="156" rx="30" fill="#ffffff" />
  <text x="72" y="440" fill="#172033" font-family="Arial, sans-serif" font-size="34" font-weight="700">Nakasero Market</text>
  <text x="72" y="488" fill="#5b6475" font-family="Arial, sans-serif" font-size="24">2.5 km away · Open now</text>
  <rect x="72" y="532" width="210" height="40" rx="20" fill="#eef4ff" />
  <text x="90" y="560" fill="#2c4f78" font-family="Arial, sans-serif" font-size="20">Vegetables</text>

  <rect x="36" y="584" width="648" height="156" rx="30" fill="#ffffff" />
  <text x="72" y="652" fill="#172033" font-family="Arial, sans-serif" font-size="34" font-weight="700">Kalerwe Market</text>
  <text x="72" y="700" fill="#5b6475" font-family="Arial, sans-serif" font-size="24">3.8 km away · Open now</text>
  <rect x="72" y="744" width="200" height="40" rx="20" fill="#e8f7ee" />
  <text x="90" y="772" fill="#166b3e" font-family="Arial, sans-serif" font-size="20">Matoke</text>
</svg>